<mxfile host="app.diagrams.net" agent="Mozilla/5.0 (Windows NT 10.0; Win64; x64) AppleWebKit/537.36 (KHTML, like Gecko) Chrome/134.0.0.0 Safari/537.36" version="26.1.1">
  <diagram name="PÃ¡gina-1" id="_7hjYO3Eg4ipRepWvSzz">
    <mxGraphModel dx="1120" dy="426" grid="1" gridSize="10" guides="1" tooltips="1" connect="1" arrows="1" fold="1" page="1" pageScale="1" pageWidth="827" pageHeight="1169" math="0" shadow="0">
      <root>
        <mxCell id="0" />
        <mxCell id="1" parent="0" />
        <mxCell id="qG-8T-zHR3JYp14bLmiY-1" value="MEDICAMENTO" style="whiteSpace=wrap;html=1;align=center;" vertex="1" parent="1">
          <mxGeometry x="290" y="140" width="100" height="40" as="geometry" />
        </mxCell>
        <mxCell id="qG-8T-zHR3JYp14bLmiY-2" value="Nombre" style="ellipse;whiteSpace=wrap;html=1;align=center;" vertex="1" parent="1">
          <mxGeometry x="100" y="150" width="100" height="40" as="geometry" />
        </mxCell>
        <mxCell id="qG-8T-zHR3JYp14bLmiY-3" value="ID_medicamento" style="ellipse;whiteSpace=wrap;html=1;align=center;fontStyle=4;" vertex="1" parent="1">
          <mxGeometry x="120" y="200" width="100" height="40" as="geometry" />
        </mxCell>
        <mxCell id="qG-8T-zHR3JYp14bLmiY-4" value="Tipo" style="ellipse;whiteSpace=wrap;html=1;align=center;" vertex="1" parent="1">
          <mxGeometry x="130" y="100" width="100" height="40" as="geometry" />
        </mxCell>
        <mxCell id="qG-8T-zHR3JYp14bLmiY-5" value="" style="endArrow=none;html=1;rounded=0;exitX=1;exitY=0.5;exitDx=0;exitDy=0;entryX=0;entryY=0;entryDx=0;entryDy=0;" edge="1" parent="1" source="qG-8T-zHR3JYp14bLmiY-4" target="qG-8T-zHR3JYp14bLmiY-1">
          <mxGeometry relative="1" as="geometry">
            <mxPoint x="330" y="220" as="sourcePoint" />
            <mxPoint x="490" y="220" as="targetPoint" />
          </mxGeometry>
        </mxCell>
        <mxCell id="qG-8T-zHR3JYp14bLmiY-6" value="" style="endArrow=none;html=1;rounded=0;exitX=1;exitY=0.5;exitDx=0;exitDy=0;entryX=0;entryY=0.75;entryDx=0;entryDy=0;" edge="1" parent="1" source="qG-8T-zHR3JYp14bLmiY-2" target="qG-8T-zHR3JYp14bLmiY-1">
          <mxGeometry relative="1" as="geometry">
            <mxPoint x="330" y="220" as="sourcePoint" />
            <mxPoint x="490" y="220" as="targetPoint" />
          </mxGeometry>
        </mxCell>
        <mxCell id="qG-8T-zHR3JYp14bLmiY-7" value="" style="endArrow=none;html=1;rounded=0;exitX=1;exitY=0;exitDx=0;exitDy=0;entryX=0.25;entryY=1;entryDx=0;entryDy=0;" edge="1" parent="1" source="qG-8T-zHR3JYp14bLmiY-3" target="qG-8T-zHR3JYp14bLmiY-1">
          <mxGeometry relative="1" as="geometry">
            <mxPoint x="330" y="220" as="sourcePoint" />
            <mxPoint x="490" y="220" as="targetPoint" />
          </mxGeometry>
        </mxCell>
        <mxCell id="qG-8T-zHR3JYp14bLmiY-8" value="Via_administracion" style="ellipse;whiteSpace=wrap;html=1;align=center;" vertex="1" parent="1">
          <mxGeometry x="200" y="50" width="110" height="40" as="geometry" />
        </mxCell>
        <mxCell id="qG-8T-zHR3JYp14bLmiY-9" value="" style="endArrow=none;html=1;rounded=0;exitX=0.5;exitY=1;exitDx=0;exitDy=0;entryX=0.25;entryY=0;entryDx=0;entryDy=0;" edge="1" parent="1" source="qG-8T-zHR3JYp14bLmiY-8" target="qG-8T-zHR3JYp14bLmiY-1">
          <mxGeometry relative="1" as="geometry">
            <mxPoint x="330" y="220" as="sourcePoint" />
            <mxPoint x="490" y="220" as="targetPoint" />
          </mxGeometry>
        </mxCell>
        <mxCell id="qG-8T-zHR3JYp14bLmiY-11" value="Precio_minorista" style="ellipse;whiteSpace=wrap;html=1;align=center;" vertex="1" parent="1">
          <mxGeometry x="330" y="40" width="100" height="40" as="geometry" />
        </mxCell>
        <mxCell id="qG-8T-zHR3JYp14bLmiY-12" value="Precio_mayorista" style="ellipse;whiteSpace=wrap;html=1;align=center;" vertex="1" parent="1">
          <mxGeometry x="180" y="240" width="100" height="40" as="geometry" />
        </mxCell>
        <mxCell id="qG-8T-zHR3JYp14bLmiY-13" value="" style="endArrow=none;html=1;rounded=0;exitX=0.5;exitY=0;exitDx=0;exitDy=0;entryX=0.5;entryY=1;entryDx=0;entryDy=0;" edge="1" parent="1" source="qG-8T-zHR3JYp14bLmiY-12" target="qG-8T-zHR3JYp14bLmiY-1">
          <mxGeometry relative="1" as="geometry">
            <mxPoint x="330" y="220" as="sourcePoint" />
            <mxPoint x="490" y="220" as="targetPoint" />
          </mxGeometry>
        </mxCell>
        <mxCell id="qG-8T-zHR3JYp14bLmiY-14" value="Velocidad_de_absorcion" style="ellipse;whiteSpace=wrap;html=1;align=center;" vertex="1" parent="1">
          <mxGeometry x="274" y="260" width="140" height="40" as="geometry" />
        </mxCell>
        <mxCell id="qG-8T-zHR3JYp14bLmiY-15" value="" style="endArrow=none;html=1;rounded=0;exitX=0.75;exitY=1;exitDx=0;exitDy=0;entryX=0.5;entryY=0;entryDx=0;entryDy=0;" edge="1" parent="1" source="qG-8T-zHR3JYp14bLmiY-1" target="qG-8T-zHR3JYp14bLmiY-14">
          <mxGeometry relative="1" as="geometry">
            <mxPoint x="330" y="220" as="sourcePoint" />
            <mxPoint x="490" y="220" as="targetPoint" />
          </mxGeometry>
        </mxCell>
        <mxCell id="qG-8T-zHR3JYp14bLmiY-16" value="Requiere_receta" style="ellipse;whiteSpace=wrap;html=1;align=center;" vertex="1" parent="1">
          <mxGeometry x="440" y="260" width="100" height="40" as="geometry" />
        </mxCell>
        <mxCell id="qG-8T-zHR3JYp14bLmiY-17" value="" style="endArrow=none;html=1;rounded=0;exitX=0.5;exitY=1;exitDx=0;exitDy=0;entryX=0.75;entryY=0;entryDx=0;entryDy=0;" edge="1" parent="1" source="qG-8T-zHR3JYp14bLmiY-11" target="qG-8T-zHR3JYp14bLmiY-1">
          <mxGeometry relative="1" as="geometry">
            <mxPoint x="330" y="220" as="sourcePoint" />
            <mxPoint x="490" y="220" as="targetPoint" />
          </mxGeometry>
        </mxCell>
        <mxCell id="qG-8T-zHR3JYp14bLmiY-18" value="" style="endArrow=none;html=1;rounded=0;exitX=1;exitY=1;exitDx=0;exitDy=0;entryX=0;entryY=0;entryDx=0;entryDy=0;" edge="1" parent="1" source="qG-8T-zHR3JYp14bLmiY-1" target="qG-8T-zHR3JYp14bLmiY-16">
          <mxGeometry relative="1" as="geometry">
            <mxPoint x="330" y="220" as="sourcePoint" />
            <mxPoint x="490" y="220" as="targetPoint" />
          </mxGeometry>
        </mxCell>
        <mxCell id="qG-8T-zHR3JYp14bLmiY-19" value="Presentacion" style="ellipse;whiteSpace=wrap;html=1;align=center;" vertex="1" parent="1">
          <mxGeometry x="460" y="40" width="100" height="40" as="geometry" />
        </mxCell>
        <mxCell id="qG-8T-zHR3JYp14bLmiY-20" value="Almacenamiento" style="ellipse;whiteSpace=wrap;html=1;align=center;" vertex="1" parent="1">
          <mxGeometry x="540" y="90" width="100" height="40" as="geometry" />
        </mxCell>
        <mxCell id="qG-8T-zHR3JYp14bLmiY-21" value="Efectos adversos" style="ellipse;whiteSpace=wrap;html=1;align=center;" vertex="1" parent="1">
          <mxGeometry x="510" y="150" width="100" height="40" as="geometry" />
        </mxCell>
        <mxCell id="qG-8T-zHR3JYp14bLmiY-22" value="" style="endArrow=none;html=1;rounded=0;exitX=1;exitY=0;exitDx=0;exitDy=0;entryX=0;entryY=1;entryDx=0;entryDy=0;" edge="1" parent="1" source="qG-8T-zHR3JYp14bLmiY-1" target="qG-8T-zHR3JYp14bLmiY-19">
          <mxGeometry relative="1" as="geometry">
            <mxPoint x="330" y="220" as="sourcePoint" />
            <mxPoint x="490" y="220" as="targetPoint" />
          </mxGeometry>
        </mxCell>
        <mxCell id="qG-8T-zHR3JYp14bLmiY-23" value="" style="endArrow=none;html=1;rounded=0;exitX=1;exitY=0.25;exitDx=0;exitDy=0;entryX=0;entryY=0.5;entryDx=0;entryDy=0;" edge="1" parent="1" source="qG-8T-zHR3JYp14bLmiY-1" target="qG-8T-zHR3JYp14bLmiY-20">
          <mxGeometry relative="1" as="geometry">
            <mxPoint x="330" y="220" as="sourcePoint" />
            <mxPoint x="490" y="220" as="targetPoint" />
          </mxGeometry>
        </mxCell>
        <mxCell id="qG-8T-zHR3JYp14bLmiY-24" value="" style="endArrow=none;html=1;rounded=0;exitX=1;exitY=0.5;exitDx=0;exitDy=0;entryX=0;entryY=0.5;entryDx=0;entryDy=0;" edge="1" parent="1" source="qG-8T-zHR3JYp14bLmiY-1" target="qG-8T-zHR3JYp14bLmiY-21">
          <mxGeometry relative="1" as="geometry">
            <mxPoint x="330" y="220" as="sourcePoint" />
            <mxPoint x="490" y="220" as="targetPoint" />
          </mxGeometry>
        </mxCell>
        <mxCell id="qG-8T-zHR3JYp14bLmiY-25" value="DROGA" style="whiteSpace=wrap;html=1;align=center;" vertex="1" parent="1">
          <mxGeometry x="990" y="90" width="100" height="40" as="geometry" />
        </mxCell>
        <mxCell id="qG-8T-zHR3JYp14bLmiY-26" value="ID_droga" style="ellipse;whiteSpace=wrap;html=1;align=center;fontStyle=4;" vertex="1" parent="1">
          <mxGeometry x="870" y="160" width="100" height="40" as="geometry" />
        </mxCell>
        <mxCell id="qG-8T-zHR3JYp14bLmiY-27" value="" style="endArrow=none;html=1;rounded=0;exitX=1;exitY=0;exitDx=0;exitDy=0;entryX=0;entryY=1;entryDx=0;entryDy=0;" edge="1" parent="1" source="qG-8T-zHR3JYp14bLmiY-26" target="qG-8T-zHR3JYp14bLmiY-25">
          <mxGeometry relative="1" as="geometry">
            <mxPoint x="710" y="220" as="sourcePoint" />
            <mxPoint x="870" y="220" as="targetPoint" />
          </mxGeometry>
        </mxCell>
        <mxCell id="qG-8T-zHR3JYp14bLmiY-28" value="Nombre" style="ellipse;whiteSpace=wrap;html=1;align=center;" vertex="1" parent="1">
          <mxGeometry x="840" y="70" width="100" height="40" as="geometry" />
        </mxCell>
        <mxCell id="qG-8T-zHR3JYp14bLmiY-29" value="" style="endArrow=none;html=1;rounded=0;exitX=1;exitY=0.5;exitDx=0;exitDy=0;entryX=0;entryY=0.5;entryDx=0;entryDy=0;" edge="1" parent="1" source="qG-8T-zHR3JYp14bLmiY-28" target="qG-8T-zHR3JYp14bLmiY-25">
          <mxGeometry relative="1" as="geometry">
            <mxPoint x="710" y="220" as="sourcePoint" />
            <mxPoint x="870" y="220" as="targetPoint" />
          </mxGeometry>
        </mxCell>
        <mxCell id="qG-8T-zHR3JYp14bLmiY-30" value="COMPOSICION MEDICAMENTO" style="whiteSpace=wrap;html=1;align=center;" vertex="1" parent="1">
          <mxGeometry x="710" y="320" width="100" height="40" as="geometry" />
        </mxCell>
        <mxCell id="qG-8T-zHR3JYp14bLmiY-31" value="ID_medicamento" style="ellipse;whiteSpace=wrap;html=1;align=center;" vertex="1" parent="1">
          <mxGeometry x="620" y="280" width="100" height="40" as="geometry" />
        </mxCell>
        <mxCell id="qG-8T-zHR3JYp14bLmiY-32" value="ID_droga" style="ellipse;whiteSpace=wrap;html=1;align=center;" vertex="1" parent="1">
          <mxGeometry x="580" y="350" width="100" height="40" as="geometry" />
        </mxCell>
        <mxCell id="qG-8T-zHR3JYp14bLmiY-33" value="ConcentraciÃ³n" style="ellipse;whiteSpace=wrap;html=1;align=center;" vertex="1" parent="1">
          <mxGeometry x="827" y="340" width="100" height="40" as="geometry" />
        </mxCell>
        <mxCell id="qG-8T-zHR3JYp14bLmiY-34" value="" style="endArrow=none;html=1;rounded=0;exitX=1;exitY=0;exitDx=0;exitDy=0;entryX=0;entryY=0.75;entryDx=0;entryDy=0;" edge="1" parent="1" source="qG-8T-zHR3JYp14bLmiY-32" target="qG-8T-zHR3JYp14bLmiY-30">
          <mxGeometry relative="1" as="geometry">
            <mxPoint x="710" y="320" as="sourcePoint" />
            <mxPoint x="870" y="320" as="targetPoint" />
          </mxGeometry>
        </mxCell>
        <mxCell id="qG-8T-zHR3JYp14bLmiY-35" value="" style="endArrow=none;html=1;rounded=0;exitX=0.5;exitY=1;exitDx=0;exitDy=0;entryX=0;entryY=0.25;entryDx=0;entryDy=0;" edge="1" parent="1" source="qG-8T-zHR3JYp14bLmiY-31" target="qG-8T-zHR3JYp14bLmiY-30">
          <mxGeometry relative="1" as="geometry">
            <mxPoint x="710" y="320" as="sourcePoint" />
            <mxPoint x="870" y="320" as="targetPoint" />
          </mxGeometry>
        </mxCell>
        <mxCell id="qG-8T-zHR3JYp14bLmiY-36" value="" style="endArrow=none;html=1;rounded=0;entryX=0;entryY=0;entryDx=0;entryDy=0;exitX=1;exitY=0.5;exitDx=0;exitDy=0;" edge="1" parent="1" source="qG-8T-zHR3JYp14bLmiY-30" target="qG-8T-zHR3JYp14bLmiY-33">
          <mxGeometry relative="1" as="geometry">
            <mxPoint x="710" y="320" as="sourcePoint" />
            <mxPoint x="870" y="320" as="targetPoint" />
          </mxGeometry>
        </mxCell>
        <mxCell id="qG-8T-zHR3JYp14bLmiY-37" value="LOTE DROGA" style="whiteSpace=wrap;html=1;align=center;" vertex="1" parent="1">
          <mxGeometry x="1110" y="300" width="100" height="40" as="geometry" />
        </mxCell>
        <mxCell id="qG-8T-zHR3JYp14bLmiY-38" value="ID_Lote_Droga" style="ellipse;whiteSpace=wrap;html=1;align=center;fontStyle=4;" vertex="1" parent="1">
          <mxGeometry x="1000" y="250" width="100" height="40" as="geometry" />
        </mxCell>
        <mxCell id="qG-8T-zHR3JYp14bLmiY-39" value="ID_droga" style="ellipse;whiteSpace=wrap;html=1;align=center;" vertex="1" parent="1">
          <mxGeometry x="960" y="310" width="100" height="40" as="geometry" />
        </mxCell>
        <mxCell id="qG-8T-zHR3JYp14bLmiY-40" value="Estado" style="ellipse;whiteSpace=wrap;html=1;align=center;" vertex="1" parent="1">
          <mxGeometry x="1030" y="370" width="100" height="40" as="geometry" />
        </mxCell>
        <mxCell id="qG-8T-zHR3JYp14bLmiY-41" value="Fecha_ingreso" style="ellipse;whiteSpace=wrap;html=1;align=center;" vertex="1" parent="1">
          <mxGeometry x="1150" y="230" width="100" height="40" as="geometry" />
        </mxCell>
        <mxCell id="qG-8T-zHR3JYp14bLmiY-42" value="" style="endArrow=none;html=1;rounded=0;exitX=1;exitY=0;exitDx=0;exitDy=0;entryX=0.25;entryY=1;entryDx=0;entryDy=0;" edge="1" parent="1" source="qG-8T-zHR3JYp14bLmiY-40" target="qG-8T-zHR3JYp14bLmiY-37">
          <mxGeometry relative="1" as="geometry">
            <mxPoint x="710" y="320" as="sourcePoint" />
            <mxPoint x="870" y="320" as="targetPoint" />
          </mxGeometry>
        </mxCell>
        <mxCell id="qG-8T-zHR3JYp14bLmiY-43" value="" style="endArrow=none;html=1;rounded=0;exitX=1;exitY=0.5;exitDx=0;exitDy=0;entryX=0;entryY=0.75;entryDx=0;entryDy=0;" edge="1" parent="1" source="qG-8T-zHR3JYp14bLmiY-39" target="qG-8T-zHR3JYp14bLmiY-37">
          <mxGeometry relative="1" as="geometry">
            <mxPoint x="710" y="320" as="sourcePoint" />
            <mxPoint x="870" y="320" as="targetPoint" />
          </mxGeometry>
        </mxCell>
        <mxCell id="qG-8T-zHR3JYp14bLmiY-44" value="" style="endArrow=none;html=1;rounded=0;exitX=1;exitY=1;exitDx=0;exitDy=0;entryX=0;entryY=0;entryDx=0;entryDy=0;" edge="1" parent="1" source="qG-8T-zHR3JYp14bLmiY-38" target="qG-8T-zHR3JYp14bLmiY-37">
          <mxGeometry relative="1" as="geometry">
            <mxPoint x="710" y="320" as="sourcePoint" />
            <mxPoint x="870" y="320" as="targetPoint" />
          </mxGeometry>
        </mxCell>
        <mxCell id="qG-8T-zHR3JYp14bLmiY-45" value="" style="endArrow=none;html=1;rounded=0;exitX=0.5;exitY=1;exitDx=0;exitDy=0;entryX=0.75;entryY=0;entryDx=0;entryDy=0;" edge="1" parent="1" source="qG-8T-zHR3JYp14bLmiY-41" target="qG-8T-zHR3JYp14bLmiY-37">
          <mxGeometry relative="1" as="geometry">
            <mxPoint x="710" y="320" as="sourcePoint" />
            <mxPoint x="870" y="320" as="targetPoint" />
          </mxGeometry>
        </mxCell>
        <mxCell id="qG-8T-zHR3JYp14bLmiY-46" value="ANÃLISIS DROGA" style="whiteSpace=wrap;html=1;align=center;" vertex="1" parent="1">
          <mxGeometry x="680" y="565" width="100" height="40" as="geometry" />
        </mxCell>
        <mxCell id="qG-8T-zHR3JYp14bLmiY-47" value="Resultado" style="ellipse;whiteSpace=wrap;html=1;align=center;" vertex="1" parent="1">
          <mxGeometry x="520" y="585" width="100" height="40" as="geometry" />
        </mxCell>
        <mxCell id="qG-8T-zHR3JYp14bLmiY-48" value="ID_Lote_Droga" style="ellipse;whiteSpace=wrap;html=1;align=center;" vertex="1" parent="1">
          <mxGeometry x="510" y="525" width="100" height="40" as="geometry" />
        </mxCell>
      </root>
    </mxGraphModel>
  </diagram>
</mxfile>
